<svg clip-rule="evenodd" fill-rule="evenodd" height="492" stroke-linejoin="round" stroke-miterlimit="1.41421" viewBox="0 0 706 650" width="570" xmlns="http://www.w3.org/2000/svg"><path d="m497.44 15.78c82.39 11.67 185.76 56 204.53 121.3 18.78 65.47-47 151.75-109.62 220.78-62.6 69.19-121.98 121.14-194.73 156.14-72.74 34.85-158.69 53-216.54 20.13-57.69-32.64-87.08-116.21-121.31-189.81-34.34-73.76-73.59-137.71-55-182.54 18.63-44.66 95.1-70.21 152.62-86.28s95.92-22.84 146-36.54c49.91-13.88 111.49-34.85 194.05-23.18z" fill="#f2f2f2" fill-rule="nonzero"/><path d="m235.25 35.51c-13.21 0-17.34 20.64-17.34 28.89 0 14 14.86 71.82 28.89 71.82s28.9-57 28.9-63.56-17.34-37.15-40.45-37.15z" fill="#de8e68" fill-rule="nonzero"/><path d="m479.15 41.15c0-13.991-11.359-25.35-25.35-25.35h-202.36c-13.991 0-25.35 11.359-25.35 25.35v393.59c0 13.991 11.359 25.35 25.35 25.35h202.36c13.991 0 25.35-11.359 25.35-25.35z" fill="#1a7aff" transform="matrix(.981293 .192522 -.192522 .981293 52.42 -63.45)"/><path d="m449.19 30.59-2.51 12.79c-1.285 6.471-7.654 10.749-14.13 9.49l-85.62-16.8c-6.468-1.29-10.743-7.655-9.49-14.13l2.56-12.79" fill="#f5e17b" fill-rule="nonzero"/><path d="m175.09 386.56 270.64 53.11" fill-rule="nonzero"/><circle cx="310.67" cy="434.45" fill="#f5e17b" r="10.03"/><g fill-rule="nonzero"><path d="m219.57 147c-17.34 0-28.9 13.2-28.9 27.24 0 46.22 26.42 84.19 38 84.19 24.76 0 33.84-13.21 33.84-22.29-.02-6.65-3.32-89.14-42.94-89.14z" fill="#de8e68"/><path d="m210.49 268.29c4.95 4.95 42.92 45.4 42.92 73.46 0 19-4.13 33.84-38.8 33.84-16.51 0-62.73-65.21-62.73-91.62 0-14.86 9.08-49.53 34.67-49.53 7.43 0 23.94 13.21 26.41 16.51 2.544 2.634 5.242 5.116 8.08 7.43-1.04 5.37-6.78 33.62-6.78 33.62" fill="#de8e68"/><path d="m222.65 281.88s-11.75-14.83-19.18-21.43"/><path d="m204.32 434.35c-2.47 6.61-4.15 70.43 3.28 105.92-5 25.59-24.77 109-24.77 109h179.17l18.16-72.64s110.56-96.63 121.29-113.95 35.91-118.45 35.55-127.94c-.29-6.6-120.52-108.14-123.82-112.27s-61.36 54 35.22 120.9c-.83 8.25-.78 44.69-.78 44.69s-67.18 23.09-74 28.07-19.87 40.07-22.23 47.94c-9.13-1.78-147.07-29.72-147.07-29.72z" fill="#de8e68"/><path d="m337.31 505.43c2.25-8.6 13.16-39.49 15.87-46.86"/></g></svg>