<svg clip-rule="evenodd" fill-rule="evenodd" height="21" stroke-linejoin="round" stroke-miterlimit="1.41421" viewBox="0 0 204 42" width="102" xmlns="http://www.w3.org/2000/svg"><g fill-rule="nonzero" transform="matrix(4.23438 0 0 4.27792 -38.2385 -6.48197)"><path d="m13.182 10.719h-2.625c-.378 0-.649-.085-.811-.255s-.243-.44-.243-.811v-6.457c0-.379.083-.652.249-.818s.434-.249.805-.249h2.784c.41 0 .765.026 1.066.076.301.051.57.149.809.293.203.121.383.275.539.46.156.186.275.391.357.616.082.224.123.461.123.711 0 .86-.429 1.489-1.289 1.887 1.129.36 1.694 1.059 1.694 2.098 0 .48-.124.913-.37 1.298-.246.384-.578.669-.996.852-.261.11-.562.187-.902.232s-.736.067-1.19.067zm-.128-3.814h-1.811v2.507h1.869c1.176 0 1.764-.423 1.764-1.271 0-.434-.152-.748-.457-.943-.305-.196-.76-.293-1.365-.293zm-1.811-3.469v2.221h1.594c.433 0 .768-.041 1.005-.123.236-.083.417-.239.542-.469.097-.164.146-.348.146-.551 0-.434-.154-.722-.463-.864-.308-.143-.779-.214-1.412-.214z"/><path d="m21.925 1.983c.89 0 1.655.18 2.294.542.638.361 1.122.875 1.45 1.541s.492 1.448.492 2.346c0 .664-.09 1.268-.27 1.811-.179.543-.449 1.014-.808 1.412-.359.399-.801.703-1.324.914-.524.211-1.123.317-1.799.317-.672 0-1.274-.109-1.805-.326-.531-.216-.974-.522-1.33-.917-.355-.394-.624-.869-.806-1.423-.181-.555-.272-1.155-.272-1.799 0-.66.095-1.266.284-1.817.19-.55.464-1.019.823-1.406.36-.387.797-.683 1.313-.888.515-.205 1.101-.307 1.758-.307zm2.472 4.418c0-.629-.101-1.174-.304-1.635s-.494-.81-.87-1.046c-.377-.236-.81-.354-1.298-.354-.348 0-.669.065-.964.196s-.549.321-.762.571-.381.569-.504.958-.184.825-.184 1.31c0 .488.061.929.184 1.324.123.394.297.722.522.981.224.26.482.454.773.583s.61.194.958.194c.445 0 .855-.112 1.228-.334.373-.223.67-.567.89-1.032.221-.464.331-1.037.331-1.716z"/><path d="m31.429 1.983c.89 0 1.655.18 2.294.542.638.361 1.122.875 1.45 1.541s.492 1.448.492 2.346c0 .664-.09 1.268-.27 1.811-.179.543-.449 1.014-.808 1.412-.36.399-.801.703-1.324.914-.524.211-1.123.317-1.799.317-.672 0-1.274-.109-1.805-.326-.531-.216-.975-.522-1.33-.917-.355-.394-.624-.869-.806-1.423-.181-.555-.272-1.155-.272-1.799 0-.66.095-1.266.284-1.817.189-.55.464-1.019.823-1.406.36-.387.797-.683 1.313-.888.515-.205 1.101-.307 1.758-.307zm2.472 4.418c0-.629-.101-1.174-.304-1.635-.204-.461-.494-.81-.871-1.046s-.809-.354-1.297-.354c-.348 0-.669.065-.964.196s-.549.321-.762.571-.381.569-.504.958-.184.825-.184 1.31c0 .488.061.929.184 1.324.123.394.297.722.522.981.224.26.482.454.773.583s.61.194.958.194c.445 0 .855-.112 1.228-.334.373-.223.669-.567.89-1.032.221-.464.331-1.037.331-1.716z"/><path d="m43.681 8.141c0 .519-.134.986-.402 1.4-.267.414-.659.739-1.175.973-.515.234-1.127.352-1.834.352-.847 0-1.546-.161-2.097-.481-.391-.23-.708-.538-.952-.923-.245-.385-.367-.759-.367-1.122 0-.211.074-.391.22-.542.147-.15.333-.225.56-.225.183 0 .339.058.465.175.127.118.236.291.326.522.109.273.227.502.354.685.127.184.306.335.536.454.231.12.534.179.909.179.515 0 .934-.12 1.256-.36.323-.24.484-.54.484-.9 0-.285-.087-.516-.261-.694s-.398-.313-.674-.407c-.275-.094-.643-.193-1.104-.299-.618-.144-1.134-.313-1.55-.507-.416-.193-.746-.457-.99-.791-.245-.334-.367-.749-.367-1.245 0-.473.129-.893.387-1.26s.631-.649 1.119-.846c.489-.198 1.063-.296 1.723-.296.527 0 .983.065 1.368.196s.704.305.958.522c.254.216.44.444.557.682s.176.471.176.697c0 .207-.074.394-.22.56-.147.166-.329.249-.548.249-.199 0-.351-.05-.454-.149-.104-.1-.216-.263-.337-.49-.156-.324-.344-.577-.563-.758-.218-.182-.57-.273-1.054-.273-.449 0-.812.099-1.087.296-.276.197-.413.435-.413.712 0 .172.047.32.14.445.094.125.223.233.387.322.164.09.33.161.498.211.168.051.445.125.832.223.485.113.923.238 1.316.375.392.137.726.303 1.002.498.275.195.49.442.644.741s.232.665.232 1.099z"/><path d="m50.735 3.565h-1.898v6.24c0 .359-.08.626-.24.8-.161.174-.368.261-.622.261-.257 0-.467-.088-.629-.264-.163-.176-.244-.442-.244-.797v-6.24h-1.898c-.297 0-.518-.066-.662-.197-.145-.13-.217-.303-.217-.518 0-.223.075-.399.226-.527.15-.129.368-.194.653-.194h5.531c.301 0 .525.067.671.199.147.133.22.307.22.522s-.074.388-.223.518c-.148.131-.371.197-.668.197z"/><g fill="#1a7aff"><path d="m52.106 10.866c-.242 0-.451-.079-.627-.235-.175-.156-.263-.375-.263-.656 0-.238.084-.443.252-.615s.375-.258.621-.258.456.085.63.255c.173.17.26.376.26.618 0 .277-.087.495-.26.653-.174.158-.378.238-.613.238z"/><path d="m55.862 10.866c-.242 0-.451-.079-.627-.235s-.263-.375-.263-.656c0-.238.084-.443.252-.615.167-.172.375-.258.621-.258s.456.085.629.255c.174.17.261.376.261.618 0 .277-.087.495-.261.653-.173.158-.377.238-.612.238z"/></g></g></svg>