<svg clip-rule="evenodd" fill-rule="evenodd" height="610" stroke-linejoin="round" stroke-miterlimit="2" viewBox="0 0 610 610" width="610" xmlns="http://www.w3.org/2000/svg"><path d="m298.35908964514 8.99985462537h277.97156907757v403.79448351343h-277.97156907757z" fill="#ecf3fd" stroke-width=".57884213293"/><path d="m15.99989719994 502.39331189565h83.22592187325v98.94727420374h-83.22592187325z" fill="#1872ec" stroke-width=".57884213293"/><path d="m123.54297707775 427.54323568596h83.22592187325v173.79735041343h-83.22592187325z" fill="#1872ec" stroke-width=".57884213293"/><path d="m231.08026853422 341.46362209734h83.22592187325v259.88275242338h-83.22592187325z" fill="#1872ec" stroke-width=".57884213293"/><path d="m154.15793748863 434.94662656618h9.66666362v7.08502770711h-9.66666362z" fill="#de8e68" stroke-width=".57884213293"/><path d="m260.20760466346 343.31591692273h9.66666362v7.08502770711h-9.66666362z" fill="#de8e68" stroke-width=".57884213293"/><path d="m459.19 476.9c10 0 90.23 11.33 125.33 29.36-4.83 23.51-36.39 162-36.39 162h-19.65s-7.4-116.59-9-115.62c-10.63 5.47-52.82 19.27-97.91 19.94" fill="#5598f0" fill-rule="nonzero" transform="matrix(.57884213293 0 0 .57884213293 -45.936211024 -42.644440475)"/><path d="m459.19 476.9-96.19 349.79h-17.32v-349.79" fill="#6ea4ea" fill-rule="nonzero" transform="matrix(.57884213293 0 0 .57884213293 -45.936211024 -42.644440475)"/><path d="m477 329.89c4.85 2.11 21.47 16 24.44 21 27.14-33.79 71.9-67.89 75.56-71.83s4.8-25.89 4.8-30.69 6.62-17.59 13-17.59v57.55s-74.9 105.05-87.23 105.05c-8 0-47.51-17.36-53-22.61" fill="#de8e68" fill-rule="nonzero" transform="matrix(.57884213293 0 0 .57884213293 -45.936211024 -42.644440475)"/><path d="m416 310.55c9.88-16 67 8.78 67 16.43s-21.18 42.88-30.67 42.38c-7.56-.36-46.56-42.2-36.33-58.81z" fill="#fcc486" fill-rule="nonzero" transform="matrix(.57884213293 0 0 .57884213293 -45.936211024 -42.644440475)"/><path d="m402.13 287.34c72.58 0 68.52 180.72 57.06 189.56s-105.52 13.13-114.12 0-11.93-189.56 57.06-189.56z" fill="#fed385" fill-rule="nonzero" transform="matrix(.57884213293 0 0 .57884213293 -45.936211024 -42.644440475)"/><path d="m323.63 344.39c-12.89 4.05-46.05 66.57-46.05 76.11 0 20 67.52 108.09 76.11 108.09 3.58-6.21 9.31-19.09 9.31-19.09s-40.56-75.64-48-85.42c6.44-6 29.82-37.46 33.64-47.24s2.39-30.78 2.39-30.78z" fill="#de8e68" fill-rule="nonzero" transform="matrix(.57884213293 0 0 .57884213293 -45.936211024 -42.644440475)"/><path d="m369.94 306.68c16.46 9-5.25 67.32-12.89 67.8s-43.93-18.91-43.93-28.41c0-7.64 39.7-48.78 56.82-39.39z" fill="#fed892" fill-rule="nonzero" transform="matrix(.57884213293 0 0 .57884213293 -45.936211024 -42.644440475)"/><path d="m345.68 834.73v14.8h44.6v-5.37l-27.08-9.43z" fill-rule="nonzero" transform="matrix(.57884213293 0 0 .57884213293 -45.936211024 -42.644440475)"/><path d="m528.16 677.67v14.8h44.61v-5.36l-27.08-9.44z" fill-rule="nonzero" transform="matrix(.57884213293 0 0 .57884213293 -45.936211024 -42.644440475)"/><g stroke-width=".57884213293"><path d="m298.35908964514 8.99985462537h277.97156907757v26.00737703272h-277.97156907757z" fill="#1872ec"/><path d="m362.55268218752 67.76390796083h233.44703221228v66.51474949545h-233.44703221228z" fill="#5094f1"/><path d="m376.18441441812 80.63735699728h208.70731945068v6.02574660384h-208.70731945068z" fill="#f9f9f9"/><path d="m376.18441441812 94.99264189405h208.70731945068v6.02574660384h-208.70731945068z" fill="#f9f9f9"/><path d="m376.18441441812 109.35371521214h208.70731945068v6.02574660384h-208.70731945068z" fill="#f9f9f9"/><path d="m362.55268218752 161.00958715517h233.44703221228v66.51474949545h-233.44703221228z" fill="#5094f1"/><circle cx="393.64808156874" cy="194.26406769223" fill="#f9f9f9" r="19.807977789"/><path d="m428.07182321432 174.45608990323h151.97500200182v19.15967460012h-151.97500200182z" fill="#f9f9f9"/><path d="m428.07182321432 200.11037323486h151.97500200182v7.03872033648h-151.97500200182z" fill="#f9f9f9"/><path d="m325.52993936507 256.37382855605h219.25961153407v107.87301989358h-219.25961153407z" fill="#fff"/></g><path d="m420.14 251.78h-28.75v40.79c0 10.13 28.75 10.3 28.75 0z" fill="#d37c59" fill-rule="nonzero" transform="matrix(.57884213293 0 0 .57884213293 -45.936211024 -42.644440475)"/><path d="m441.15 233.08c-5.06-21.67-21.15-36.43-35.94-33-12.67 3-20.26 18.32-19 36.29-4.019 1.161-6.806 4.867-6.806 9.05 0 5.162 4.244 9.412 9.406 9.42.577-.006 1.153-.062 1.72-.17 6.86 16.52 20.41 26.81 33 23.87 14.79-3.43 22.68-23.8 17.62-45.46z" fill="#de8e68" fill-rule="nonzero" transform="matrix(.57884213293 0 0 .57884213293 -45.936211024 -42.644440475)"/><path d="m393.55 243.21c3.78 0 4.44-5.22 4.44-9.85 0-6.2 5.89-11.8 9.52-12.86 6.57-1.9 9.92-2.34 13.9-4.5s8.72-5.41 8.72-5.41c1.761 2.122 3.362 4.371 4.79 6.73 3.65-1 22.77-5.56 22.77-19.26 0-9-7.56-10.18-11-13-3.66-3-2.09-12.07-12-12.07-8.88 0-13.25 9.33-18.93 12.92-6.87 4.35-20.35.85-29.23 10-4.31 4.44-5.32 15.37-8 19.37-3.66 5.42-10 7-10 15.27 0 6.07 5.15 16.32 11.35 17.82 0-6 2.19-11.74 6.63-11.74 4.83 0 1.49 6.58 7.04 6.58z" fill="#1872ec" fill-rule="nonzero" transform="matrix(.57884213293 0 0 .57884213293 -45.936211024 -42.644440475)"/></svg>